<svg xmlns="http://www.w3.org/2000/svg" width="57" height="57" viewBox="0 0 57 57">
  <g>
    <ellipse cx="28.5" cy="28.5" fill="rgb(63,61,86)" rx="28.5" ry="28.5"/>
    <path fill="rgb(255,255,255)" fill-rule="evenodd" d="M18.69162241 43.98695788h-2.06492275c-.85532486 0-1.54870267-.6933778-1.54870267-1.54870267v-9.29216752c2e-8-.8553249.69337784-1.54870269 1.5487027-1.54870267h2.06492272c.85532487 0 1.54870267.6933778 1.54870267 1.54870267v9.29216752c-2e-8.8553249-.69337784 1.54870269-1.5487027 1.54870267h3e-8z"/>
    <path fill="rgb(255,255,255)" fill-rule="evenodd" d="M33.1460877 43.98695788h-2.06492275c-.85532487 0-1.54870267-.6933778-1.54870267-1.54870267V26.95131946c2e-8-.8553249.69337783-1.5487027 1.5487027-1.54870267h2.06492271c.85532487 0 1.54870268.6933778 1.54870268 1.54870267V42.4382552c-2e-8.8553249-.69337784 1.54870269-1.5487027 1.54870267h2e-8z"/>
    <path fill="rgb(255,255,255)" fill-rule="evenodd" d="M40.37332034 43.98695788h-2.06492275c-.85532487 0-1.54870267-.6933778-1.54870267-1.54870267v-22.7141684c2e-8-.8553249.69337784-1.54870268 1.5487027-1.54870267h2.06492272c.85532486 0 1.54870267.6933778 1.54870267 1.54870267v22.7141684c-2e-8.8553249-.69337784 1.54870269-1.5487027 1.54870267h3e-8z"/>
    <path fill="rgb(255,255,255)" fill-rule="evenodd" d="M25.91885505 43.98695788h-2.06489242c-.85532487 0-1.54870268-.6933778-1.54870268-1.54870267v-27.8764783c2e-8-.8553249.69337784-1.54870268 1.5487027-1.54870266h2.06492272c.85532487 0 1.54870267.6933778 1.54870267 1.54870267V42.4382552c0 .41074674-.16317058.80466992-.45361523 1.09510888-.29044465.29043896-.68437102.45360183-1.09511776.4535938z"/>
  </g>
</svg>
