<svg xmlns="http://www.w3.org/2000/svg" xmlns:xlink="http://www.w3.org/1999/xlink" width="787.827" height="453.112" viewBox="0 0 787.827 453.112">
  <defs>
    <rect id="rect-1" width="787.827" height="453.112" x="0" y="0"/>
    <mask id="mask-2" maskContentUnits="userSpaceOnUse" maskUnits="userSpaceOnUse">
      <rect width="787.827" height="453.112" x="0" y="0" fill="black"/>
      <use fill="white" xlink:href="#rect-1"/>
    </mask>
  </defs>
  <g>
    <use fill="none" xlink:href="#rect-1"/>
    <g mask="url(#mask-2)">
      <ellipse cx="406.691" cy="6.467" fill="rgb(242,242,242)" rx="6.467" ry="6.467"/>
      <ellipse cx="406.691" cy="32.24" fill="rgb(242,242,242)" rx="6.467" ry="6.467"/>
      <ellipse cx="433.691" cy="6.467" fill="rgb(242,242,242)" rx="6.467" ry="6.467"/>
      <ellipse cx="433.691" cy="32.24" fill="rgb(242,242,242)" rx="6.467" ry="6.467"/>
      <ellipse cx="460.691" cy="6.467" fill="rgb(242,242,242)" rx="6.467" ry="6.467"/>
      <ellipse cx="460.691" cy="32.24" fill="rgb(242,242,242)" rx="6.467" ry="6.467"/>
      <ellipse cx="460.691" cy="58.013" fill="rgb(242,242,242)" rx="6.467" ry="6.467"/>
      <ellipse cx="460.691" cy="83.787" fill="rgb(242,242,242)" rx="6.467" ry="6.467"/>
      <ellipse cx="487.691" cy="6.467" fill="rgb(242,242,242)" rx="6.467" ry="6.467"/>
      <ellipse cx="487.691" cy="32.24" fill="rgb(242,242,242)" rx="6.467" ry="6.467"/>
      <ellipse cx="487.691" cy="58.013" fill="rgb(242,242,242)" rx="6.467" ry="6.467"/>
      <ellipse cx="487.691" cy="83.787" fill="rgb(242,242,242)" rx="6.467" ry="6.467"/>
      <ellipse cx="514.691" cy="6.467" fill="rgb(242,242,242)" rx="6.467" ry="6.467"/>
      <ellipse cx="514.691" cy="32.24" fill="rgb(242,242,242)" rx="6.467" ry="6.467"/>
      <ellipse cx="541.691" cy="6.467" fill="rgb(242,242,242)" rx="6.467" ry="6.467"/>
      <ellipse cx="541.691" cy="32.24" fill="rgb(242,242,242)" rx="6.467" ry="6.467"/>
      <path fill="rgb(63,61,86)" fill-rule="evenodd" d="M208.52207184 153.06384277h82c4.96820831-.00567627 8.9943161-4.03179931 8.99999237-9v-89c-.00567627-4.96820068-4.03178406-8.99432373-8.99999237-9h-82c-4.96820831.00567627-8.99432373 4.03179932-9 9v89c.00568008 4.96820069 4.03179169 8.99432373 9 9zm-7-98c.00432587-3.86419677 3.1357994-6.9956665 7-7h82c3.86418915.0043335 6.99565887 3.13580323 6.99999237 7v89c-.0043335 3.86419678-3.13580322 6.9956665-6.99999237 7h-82c-3.86419678-.0043335-6.9956665-3.13580322-7-7v-89z"/>
      <path fill="rgb(63,61,86)" fill-rule="evenodd" d="M358.5220642 153.06384277h82c4.9682007-.00567627 8.99432374-4.03179931 9-9v-89c-.00567626-4.96820068-4.0317993-8.99432373-9-9h-82c-4.96821593.00567627-8.99432372 4.03179932-9 9v89c.00567628 4.96820069 4.03179933 8.99432373 9 9zm-7-98c.0043335-3.86419677 3.13580323-6.9956665 7-7h82c3.86419679.0043335 6.99566651 3.13580323 7 7v89c-.00433349 3.86419678-3.13580321 6.9956665-7 7h-82c-3.86419677-.0043335-6.9956665-3.13580322-7-7v-89z"/>
      <path fill="rgb(239,72,54)" fill-rule="evenodd" d="M225.03709 83.06386h-8c-2.48413909-.00275556-4.49724444-2.01586091-4.5-4.5v-8c.00275556-2.48413909 2.01586091-4.49724444 4.5-4.5h8c2.48413909.00275556 4.49724444 2.01586091 4.5 4.5v8c-.00275556 2.48413909-2.01586091 4.49724444-4.5 4.5z"/>
      <path fill="rgb(204,204,204)" fill-rule="evenodd" d="M225.03709 108.06386h-8c-2.48413909-.00275556-4.49724444-2.01586091-4.5-4.5v-8c.00275556-2.48413909 2.01586091-4.49724444 4.5-4.5h8c2.48413909.00275556 4.49724444 2.01586091 4.5 4.5v8c-.00275556 2.48413909-2.01586091 4.49724444-4.5 4.5z"/>
      <path fill="rgb(239,72,54)" fill-rule="evenodd" d="M283.50704 78.20082h-37.34935c-1.6561049-.00180771-2.99819229-1.3438951-3-3v-1.27393c.00180771-1.6561049 1.3438951-2.99819229 3-3h37.34936c1.6561049.00180771 2.99819229 1.3438951 3 3v1.27393c-.00180772 1.6561088-1.3439012 2.9981978-3.00001 3z"/>
      <path fill="rgb(204,204,204)" fill-rule="evenodd" d="M375.72679 81.49538h-8c-2.48413909-.00275556-4.49724444-2.01586091-4.5-4.5v-8c.00275556-2.48413909 2.01586091-4.49724444 4.5-4.5h8c2.48413909.00275556 4.49724444 2.01586091 4.5 4.5v8c-.00275556 2.48413909-2.01586091 4.49724444-4.5 4.5z"/>
      <path fill="rgb(204,204,204)" fill-rule="evenodd" d="M434.19675 76.63234h-37.34937c-1.6561049-.00180771-2.99819229-1.3438951-3-3v-1.27393c.00181321-1.65610261 1.34389739-2.99818679 3-3h37.34937c1.65610261.00181321 2.99818679 1.34389739 3 3v1.27393c-.00180771 1.6561049-1.3438951 2.99819229-3 3z"/>
      <path fill="rgb(239,72,54)" fill-rule="evenodd" d="M434.19675 100.63234h-69.34937c-1.6561049-.00180771-2.99819229-1.3438951-3-3v-1.27393c.00181321-1.65610261 1.34389739-2.99818679 3-3h69.34937c1.65610261.00181321 2.99818679 1.34389739 3 3v1.27393c-.00180771 1.6561049-1.3438951 2.99819229-3 3z"/>
      <path fill="rgb(204,204,204)" fill-rule="evenodd" d="M434.19675 117.63234h-69.34937c-1.6561049-.00180771-2.99819229-1.3438951-3-3v-1.27393c.00181321-1.65610261 1.34389739-2.99818679 3-3h69.34937c1.65610261.00181321 2.99818679 1.34389739 3 3v1.27393c-.00180771 1.6561049-1.3438951 2.99819229-3 3z"/>
      <path fill="rgb(204,204,204)" fill-rule="evenodd" d="M434.19675 134.63234h-69.34937c-1.6561049-.00180771-2.99819229-1.3438951-3-3v-1.27393c.00181321-1.65610261 1.34389739-2.99818679 3-3h69.34937c1.65610261.00181321 2.99818679 1.34389739 3 3v1.27393c-.00180771 1.6561049-1.3438951 2.99819229-3 3z"/>
      <path fill="rgb(63,61,86)" fill-rule="evenodd" d="M508.5220642 153.06384277h82c4.9682007-.00567627 8.99432374-4.03179931 9-9v-89c-.00567626-4.96820068-4.0317993-8.99432373-9-9h-82c-4.96820067.00567627-8.99432372 4.03179932-9 9v89c.00567628 4.96820069 4.03179933 8.99432373 9 9zm-7-98c.0043335-3.86419677 3.13580323-6.9956665 7-7h82c3.86419679.0043335 6.99566651 3.13580323 7 7v89c-.00433349 3.86419678-3.13580321 6.9956665-7 7h-82c-3.86419677-.0043335-6.9956665-3.13580322-7-7v-89z"/>
      <path fill="rgb(204,204,204)" fill-rule="evenodd" d="M584.19675 76.63234h-37.34937c-1.6561049-.00180771-2.99819229-1.3438951-3-3v-1.27393c.00181321-1.65610261 1.34389739-2.99818679 3-3h37.34937c1.65610261.00181321 2.99818679 1.34389739 3 3v1.27393c-.00180771 1.6561049-1.3438951 2.99819229-3 3z"/>
      <path fill="rgb(204,204,204)" fill-rule="evenodd" d="M584.19675 100.63234h-69.34937c-1.6561049-.00180771-2.99819229-1.3438951-3-3v-1.27393c.00181321-1.65610261 1.34389739-2.99818679 3-3h69.34937c1.65610261.00181321 2.99818679 1.34389739 3 3v1.27393c-.00180771 1.6561049-1.3438951 2.99819229-3 3z"/>
      <path fill="rgb(204,204,204)" fill-rule="evenodd" d="M584.19675 117.63234h-69.34937c-1.6561049-.00180771-2.99819229-1.3438951-3-3v-1.27393c.00181321-1.65610261 1.34389739-2.99818679 3-3h69.34937c1.65610261.00181321 2.99818679 1.34389739 3 3v1.27393c-.00180771 1.6561049-1.3438951 2.99819229-3 3z"/>
      <path fill="rgb(204,204,204)" fill-rule="evenodd" d="M584.19675 134.63234h-69.34937c-1.6561049-.00180771-2.99819229-1.3438951-3-3v-1.27393c.00181321-1.65610261 1.34389739-2.99818679 3-3h69.34937c1.65610261.00181321 2.99818679 1.34389739 3 3v1.27393c-.00180771 1.6561049-1.3438951 2.99819229-3 3z"/>
      <path fill="rgb(204,204,204)" fill-rule="evenodd" d="M283.50704 103.20082h-37.34935c-1.6561049-.00180771-2.99819229-1.3438951-3-3v-1.27393c.00180771-1.6561049 1.3438951-2.99819229 3-3h37.34936c1.6561049.00180771 2.99819229 1.3438951 3 3v1.27393c-.00180772 1.6561088-1.3439012 2.9981978-3.00001 3z"/>
      <path fill="rgb(204,204,204)" fill-rule="evenodd" d="M225.03709 133.06386h-8c-2.48413909-.00275556-4.49724444-2.01586091-4.5-4.5v-8c.00275556-2.48413909 2.01586091-4.49724444 4.5-4.5h8c2.48413909.00275556 4.49724444 2.01586091 4.5 4.5v8c-.00275556 2.48413909-2.01586091 4.49724444-4.5 4.5z"/>
      <path fill="rgb(204,204,204)" fill-rule="evenodd" d="M283.50704 128.20082h-37.34935c-1.6561049-.00180771-2.99819229-1.3438951-3-3v-1.27393c.00180771-1.6561049 1.3438951-2.99819229 3-3h37.34936c1.6561049.00180771 2.99819229 1.3438951 3 3v1.27393c-.00180772 1.6561088-1.3439012 2.9981978-3.00001 3z"/>
      <path fill="rgb(239,72,54)" fill-rule="evenodd" d="M530.51869 72.06386c0-.02307.00342-.04535.00342-.06848.00002917-2.38695735-.94817302-4.67615952-2.63600675-6.36399325-1.68783373-1.68783373-3.9770359-2.63603592-6.36399325-2.63600675v9.06848h8.99658z"/>
      <path fill="rgb(204,204,204)" fill-rule="evenodd" d="M520.52207 73.06386v-9.06848c-4.96206133-.00174194-8.98937817 4.0130235-9.00312493 8.9750661-.01374675 4.96204259 3.99126357 8.99906065 8.95325838 9.02481215 4.96199481.0257515 9.00869047-3.96948026 9.04644655-8.93139825h-8.99658z"/>
    </g>
  </g>
</svg>
