<svg xmlns="http://www.w3.org/2000/svg" xmlns:xlink="http://www.w3.org/1999/xlink" width="44" height="40" viewBox="0 0 44 40">
  <defs>
    <rect id="rect-1" width="44" height="40" x="0" y="0"/>
    <mask id="mask-2" maskContentUnits="userSpaceOnUse" maskUnits="userSpaceOnUse">
      <rect width="44" height="40" x="0" y="0" fill="black"/>
      <use fill="white" xlink:href="#rect-1"/>
    </mask>
  </defs>
  <g>
    <use fill="none" xlink:href="#rect-1"/>
    <g mask="url(#mask-2)">
      <path fill="rgb(63,61,86)" fill-rule="evenodd" d="M43.61397874 15.2968052c-.01575719.00000953-.03113738-.00488042-.04406176-.0140089L22.2215153.22608884c-.1330594-.09340445-.30945752-.09309978-.44220155.00076376L.5846859 15.28264387c-.03490962.02479693-.08305893.01623908-.10754449-.01911448-.02448555-.03535356-.01603517-.08411517.01887446-.1089121L21.69066147.098826c.18585436-.13138876.43280795-.13179976.61908772-.00103034L43.65815011 15.1544625c.02767844.01953227.0396299.0550018.02951495.08759449-.01011494.03259269-.0399539.05476086-.07368941.05474586l.00000309.00000235z"/>
      <path fill="rgb(230,230,230)" fill-rule="evenodd" d="M1.79581754 15.83051742L22.02130526.65033469l20.37894737 16.26032149-19.3368421 11.60893145-10.49824562-2.4234133L1.79581754 15.83051742z"/>
      <path fill="rgb(146,144,143)" fill-rule="evenodd" d="M13.45130407 35.68992661H3.45942049c-.16691961.00021738-.32125161-.08984078-.40477344-.23619957-.08352183-.14635878-.08352183-.32674302 0-.4731018.08352183-.1463588.23785383-.23641696.40477344-.23619958h9.99188358c.16691961-.00021738.32125161.08984079.40477344.23619957.08352183.14635879.08352183.32674303 0 .47310181-.08352183.14635879-.23785383.23641695-.40477344.23619957z"/>
      <path fill="rgb(146,144,143)" fill-rule="evenodd" d="M7.04428653 33.65738643H3.45942049c-.16691961.00021737-.32125161-.08984079-.40477344-.23619958-.08352183-.14635878-.08352183-.32674302 0-.4731018.08352183-.14635879.23785383-.23641695.40477344-.23619958h3.58486604c.1669196-.00021737.3212516.08984079.40477344.23619958.08352183.14635878.08352183.32674302 0 .4731018-.08352183.1463588-.23785383.23641695-.40477344.23619958z"/>
      <path fill="rgb(255,255,255)" fill-rule="evenodd" d="M22.30569656 24.2856876c-.07594467.00008197-.1511757-.0148415-.22147747-.04393414L9.61054175 19.0002357V2.59341496c.00034754-.30207666.2420674-.5468704.54035088-.54722236H34.0807172c.2982833.00035238.54000292.24514588.54035088.54722236v16.41827332l-.02344428.0101541-12.06374014 5.21735242c-.07224275.03074324-.1498253.04655057-.22818709.0464928z"/>
      <path fill="rgb(63,61,86)" fill-rule="evenodd" d="M22.069458 24.2779541c.07495118.03097534.15515137.046875.23620606.04678345.0834961.00009155.16625977-.01678467.24328614-.04962158l12.11071777-5.23760987V2.5934143c-.00036621-.3236389-.25939942-.5859375-.5789795-.5863037H10.15087892c-.31958008.0003662-.57861328.2626648-.5789795.5863037V19.0263672l12.4975586 5.25158691zm.05895997-.14456177L9.72631836 18.92190552V2.5934143c.00024414-.2373352.19018555-.4296875.42456055-.42996216h23.92980957c.234375.00027466.4243164.19262695.42456054.42996216v16.34085083l-12.01647949 5.19692993c-.1151123.0489502-.24475098.04971313-.36035156.00219726z"/>
      <path fill="rgb(63,61,86)" fill-rule="evenodd" d="M43.44421387 15.1404419h.01538086c.29833984.00033569.54003906.2451477.54040527.54721069v23.7651062c-.00036621.30206299-.24206543.546875-.54040527.54724121H.54040527C.24206543 39.99963379.00036621 39.75482178 0 39.45275879v-23.7651062c.00036621-.30206299.24206543-.546875.54040527-.5472107h.01538086l.01391602.0062561 9.07946777 3.8149109 12.5090332 5.25567627c.09606934.0397644.20385743.03921508.29956055-.0015564l12.1246338-5.24316406 8.8618164-3.8321228zm.01550293 24.70318603c.21313476-.00006104.38586425-.17504883.38598632-.39086914V15.6876831c-.00048828-.20962525-.16369628-.38183594-.37060546-.39086915l-8.89257813 3.84539795-12.0637207 5.21737671c-.13415528.05703736-.28515625.05789185-.41992188.00234986L9.64916992 19.13049316l-9.12341308-3.8336792c-.2072754.00842286-.37109375.18084717-.3713379.39086915v23.76507568c.00012208.21582031.17285157.3908081.38598633.39086914H43.4597168z"/>
      <path fill="rgb(7,206,247)" fill-rule="evenodd" d="M22.18101754 19.63332115c-.46049098.00087333-.90877405-.14992778-1.27722736-.42965554l-.0228414-.01736806-4.80997194-3.72951737c-.60602437-.47024328-.91829239-1.23218758-.8191757-1.99881586.0991167-.76662828.5945599-1.42147146 1.29970096-1.71785646.70514107-.29638499 1.51285228-.18928386 2.11887665.28095943l3.11553578 2.41932866 7.36250687-9.72388488c.34485175-.45548953.85425554-.75358254 1.41614016-.82869718.56188461-.07511465 1.13021968.07890257 1.57996883.42816715l-.04577544.06294386.0469642-.06202843c.93533176.72800146 1.11225999 2.08537195.39550057 3.03422915l-8.6600746 11.4376188c-.40596989.53421903-1.03448818.84644967-1.70012758.84457673z"/>
    </g>
  </g>
</svg>
