<svg xmlns="http://www.w3.org/2000/svg" width="57" height="57" viewBox="0 0 57 57">
  <g>
    <ellipse cx="28.5" cy="28.5" fill="#92908F" rx="28.5" ry="28.5"/>
    <path fill="rgb(255,255,255)" fill-rule="evenodd" d="M32.62217868 22.88568388c-.72054394.00039418-1.34047516.50970631-1.48068703 1.21647669-.14021187.70677037.23834404 1.41416629.90416939 1.68959383.66582535.27542755 1.43349047.04218126 1.833545-.55710173.40005454-.59928299.32108492-1.39770478-.18861656-1.9070064-.28341982-.28319937-.66775056-.4421829-1.0684108-.44196239z"/>
    <path fill="rgb(255,255,255)" fill-rule="evenodd" d="M41.03082275 16.84075928v.00509643c.4012146 1.75088501-.03961181 4.4236145-1.21044921 7.33004761-1.10354615 2.80810547-2.74328614 5.37445068-4.82766724 7.55584717-.59970093.60253906-1.24172974 1.16137695-1.92123413 1.6722412.0730896 1.126709-.10974121 2.2553711-.53475952 3.30142213-1.43399048 3.28503418-5.1123047 4.20687866-6.63174439 4.45135498-.07763672.0128479-.15615845.0192871-.23486328.01922607-.06570435-.00067138-.13095093-.00741577-.13095093-.00741577-.37322998-.03860473-.71585083-.22387695-.95245361-.51507568-.2366333-.29119873-.34786987-.66445923-.30929565-1.03768921v-.00735474l.39614868-3.63531494-.12167359-.01300049c-.44351196-.04663086-.85742187-.24468994-1.17196655-.56082153l-1.77636719-1.77746582c-.31567383-.31503296-.51348877-.7290039-.5602417-1.17254639-.00393676-.03903198-.0090332-.08148193-.01358032-.12789917l-3.63983154.39727783h-.00735474c-.43896484.04467774-.8736267-.11795043-1.17541504-.43981933-.30178833-.32189942-.4361267-.7661438-.36325073-1.20129395.24841309-1.5109558 1.18157959-5.19094848 4.44906616-6.62890625 1.04962158-.4284668 2.18347168-.61065673 3.31448364-.53250122.51199341-.67645263 1.07077027-1.3161621 1.6722107-1.9144287 2.20223999-2.08572389 4.78878784-3.7236023 7.61584472-4.8225708 2.93984986-1.177063 5.59277344-1.61563111 7.2791443-1.20422364.4267578.10238647.75857543.43792724.85620116.8658142zm-10.76184082 9.90393066c1.299469 1.29812622 3.40524292 1.29702759 4.70336914-.0024414l.03527832-.03530884c1.2786255-1.29812622 1.2628479-3.38699341-.03527832-4.6656189l-.0024414-.00241089c-1.29943848-1.29812622-3.4052124-1.29702759-4.70333863.0024109-1.29812622 1.29946898-1.29702758 3.40524291.0024109 4.70336913z"/>
  </g>
</svg>
