<svg xmlns="http://www.w3.org/2000/svg" xmlns:xlink="http://www.w3.org/1999/xlink" width="461.864" height="318.923" viewBox="0 0 461.864 318.923">
  <defs>
    <rect id="rect-1" width="461.864" height="318.923" x="0" y="0"/>
    <mask id="mask-2" maskContentUnits="userSpaceOnUse" maskUnits="userSpaceOnUse">
      <rect width="461.864" height="318.923" x="0" y="0" fill="black"/>
      <use fill="white" xlink:href="#rect-1"/>
    </mask>
  </defs>
  <g>
    <use fill="none" xlink:href="#rect-1"/>
    <g mask="url(#mask-2)">
      <path fill="rgb(239,72,54)" fill-rule="evenodd" d="M125.06109599 290.78471325H12.38143219s-2.28404521-33.47294804 11.22990093-33.85332355c13.51394615-.38037551 11.99124793 14.83460279 28.9312619-6.08599132 16.94001396-20.9205941 37.49644199-19.77945913 40.16116281-7.4173014 2.66472083 12.36215775-5.13910384 22.25190419 9.1361893 19.20890853 14.27529314-3.04299566 34.83172118 4.944869 23.22114886 28.14770774z"/>
      <path fill="rgb(242,242,242)" fill-rule="evenodd" d="M66.81919285 290.7923454l-.38030405-.01523054c.88691025-22.03830526 5.50612026-36.1981611 9.22494662-44.19586866 4.03780125-8.68406939 7.92873767-12.19956216 7.96758298-12.23410723l.2529801.28425853c-.0382922.0341738-3.88388516 3.51475023-7.8893308 12.14003646-3.698289 7.96388815-8.29222001 22.06560211-9.17587485 44.02091144z"/>
      <path fill="rgb(242,242,242)" fill-rule="evenodd" d="M107.60081241 290.83783453l-.36543305-.10623833c4.4004349-15.09202434 14.76284825-24.62070136 14.86712258-24.7152531l.25576682.2815626c-.10334542.09381342-10.3882497 9.555071-14.75745635 24.53992883z"/>
      <path fill="rgb(242,242,242)" fill-rule="evenodd" d="M30.12898952 290.81090895l-.37714153-.05237873c1.49295622-10.75895077-1.20382888-19.10638712-3.72914992-24.21432422-2.73432994-5.53067126-5.85417003-8.55136535-5.88539828-8.58126953l.2633881-.27450845c.0316927.03027545 3.19976432 3.09741638 5.9632789 8.687318 2.54892802 5.15585638 5.2712708 13.58036941 3.76502273 24.43516293z"/>
      <path fill="rgb(207,204,224)" fill-rule="evenodd" d="M.22790527 291.2935791h140.12597657l.14068603-.28125c6.9788208-13.94689941 4.12384033-22.4519043.49957276-27.1307373-6.73638917-8.69683838-20.15716553-10.45117188-29.77563477-8.40093994-4.7288208 1.00848388-7.60192871.89447021-9.04138184-.35852051-1.72436523-1.50164795-1.48217773-4.81512451-1.17559814-9.01037598.28649902-3.92126465.64294433-8.80065918-.4763794-13.99353027-1.18237304-5.484375-5.22161865-9.430542-11.08227539-10.82684326-9.0706787-2.16052247-24.84942627 1.72503662-39.4734497 19.7857666-13.49920655 16.67150879-17.21209717 14.47064209-22.83233643 11.13909912l-.02618408-.01550293c-2.97729492-1.7645874-6.66973877-3.95300293-12.53527832-3.78631592-2.77545166.07800293-5.20568848 1.24328613-7.2232666 3.4631958-9.02490235 9.93041992-7.23736573 37.76177979-7.15679932 38.9416504l.03234863.4743042zm139.49536133-1.0177002H1.18414307c-.19866944-3.76257324-1.18902588-28.78936767 6.92211914-37.71405029 1.82409668-2.00701904 4.01019287-3.06018066 6.49816894-3.13024902 5.56726074-.15777588 8.9946289 1.87109375 12.01324463 3.6599121 5.85760498 3.47216798 10.09088135 5.9805298 24.14349365-11.37438964 14.32635498-17.69250488 29.6642456-21.52911377 38.4454956-19.43566894 5.4640503 1.30163574 9.2265625 4.96508789 10.32287599 10.05090332 1.088562 5.0505371.73797607 9.84942627.45599365 13.7053833-.32727051 4.47912597-.58569336 8.01617431 1.52246094 9.85162353 1.72393798 1.50115967 4.78527832 1.68206787 9.92285156.58660889 9.61346435-2.04949951 22.57824707.05041504 28.75787353 8.02850342 4.8973999 6.3225708 4.73504639 15.22888183-.4654541 25.77142334z"/>
      <path fill="rgb(239,72,54)" fill-rule="evenodd" d="M442.15706404 290.78471325h-112.6796638s-2.2840452-33.47294804 11.22990094-33.85332355c13.51394614-.38037551 11.99124792 14.83460279 28.93126189-6.08599132 16.94001396-20.9205941 37.496442-19.77945913 40.16116282-7.4173014 2.66472082 12.36215775-5.13910384 22.25190419 9.1361893 19.20890853 14.27529314-3.04299566 34.83172117 4.944869 23.22114885 28.14770774z"/>
      <path fill="rgb(242,242,242)" fill-rule="evenodd" d="M383.9151609 290.7923454l-.38030404-.01523054c.88691024-22.03830526 5.50612026-36.1981611 9.22494661-44.19586866 4.03780126-8.68406939 7.92873768-12.19956216 7.96758299-12.23410723l.2529801.28425853c-.0382922.0341738-3.88388516 3.51475023-7.8893308 12.14003646-3.69828901 7.96388815-8.29222002 22.06560211-9.17587486 44.02091144z"/>
      <path fill="rgb(242,242,242)" fill-rule="evenodd" d="M424.69678046 290.83783453l-.36543304-.10623833c4.4004349-15.09202434 14.76284824-24.62070136 14.86712257-24.7152531l.25576682.2815626c-.10334542.09381342-10.3882497 9.555071-14.75745635 24.53992883z"/>
      <path fill="rgb(242,242,242)" fill-rule="evenodd" d="M347.22495757 290.81090895l-.37714153-.05237873c1.49295622-10.75895077-1.20382887-19.10638712-3.72914992-24.21432422-2.73432993-5.53067126-5.85417003-8.55136535-5.88539828-8.58126953l.2633881-.27450845c.03169271.03027545 3.19976433 3.09741638 5.96327891 8.687318 2.54892802 5.15585638 5.2712708 13.58036941 3.76502272 24.43516293z"/>
      <path fill="rgb(207,204,224)" fill-rule="evenodd" d="M317.32385254 291.2935791H457.4498291l.14074707-.28125c6.97875977-13.94689941 4.12390137-22.4519043.49951172-27.1307373-6.73632812-8.69683838-20.1571045-10.45117188-29.77563477-8.40093994-4.72875976 1.00848388-7.6019287.89447021-9.04125976-.35852051-1.72424316-1.50158692-1.48217773-4.8149414-1.17565918-9.01037598.28649902-3.92077637.64294434-8.80041504-.47644043-13.99353027-1.18225098-5.484375-5.22155762-9.430542-11.0822754-10.82684326-9.0706787-2.16052247-24.84936522 1.72503662-39.47338866 19.7857666-13.49926758 16.67144775-17.21203614 14.47064209-22.83239746 11.13909912l-.02600098-.01538086c-2.97717285-1.7645874-6.66967773-3.953125-12.5354004-3.78643799-2.77539062.07800293-5.20568847 1.24328613-7.2232666 3.4631958-9.02490234 9.93041992-7.23742675 37.76177979-7.15686034 38.9416504l.03234863.4743042zm139.49536133-1.0177002h-138.5390625c-.19873047-3.76257324-1.18908692-28.7894287 6.92211914-37.71405029 1.8239746-2.00701904 4.01013183-3.06018066 6.49816894-3.13024902 5.56726075-.15777588 8.9946289 1.87109375 12.0131836 3.6599121 5.85766601 3.47216798 10.0908203 5.9805298 24.14343261-11.37438964 14.32641602-17.69250488 29.66430664-21.52911377 38.44555664-19.43566894 5.46398926 1.30163574 9.2265625 4.96508789 10.32287598 10.05090332 1.08862305 5.0505371.73791504 9.84942627.45605469 13.7053833-.3272705 4.4788208-.58581543 8.01611328 1.52246094 9.85162353 1.72387695 1.50115967 4.78515625 1.68206787 9.92272949.58660889 9.61352539-2.04949951 22.57824707.05041504 28.75793457 8.02850342 4.89746094 6.3225708 4.73498535 15.22888183-.4654541 25.77142334z"/>
      <path fill="rgb(63,61,86)" fill-rule="evenodd" d="M193.85131836 221.42779541c4.77545166-15.39086914 13.4354248-25.69787598 23.31140137-25.69787598 15.01879882 0 27.23400879 23.84570313 27.23400879 53.15924073s-12.21520997 53.15924072-27.2340088 53.15924072c-15.01873779 0-27.23388671-23.84570313-27.23388671-53.15924072-.03741455-8.14178467.96142578-16.25524903 2.97247314-24.14526368.29559326-1.12646484.61224365-2.23608398.9500122-3.31610107zm-3.07806397 27.46136475c0 28.84521484 11.83935547 52.31549072 26.38946534 52.31549072 14.55004882 0 26.3894043-23.47027588 26.3894043-52.31549072 0-28.84521485-11.83935548-52.3154297-26.3894043-52.3154297-9.49603272 0-17.83508301 9.99481202-22.48382569 24.9595337-.47717285 1.52514648-.8951416 3.11358643-.8951416 3.11358643-2.03796387 7.91870117-3.04974365 16.06610107-3.01049805 24.24230957z"/>
      <path fill="rgb(63,61,86)" fill-rule="evenodd" d="M214.4182129 248.8892212c0 17.23480224 4.08007812 30.73553466 9.2890625 30.73553466 5.20910644 0 9.28918456-13.50073242 9.28918456-30.73553467 0-17.23486328-4.08007812-30.7355957-9.28918457-30.7355957-5.20898437 0-9.2890625 13.50073242-9.2890625 30.7355957zm.84448241 0c0-16.203125 3.86730957-29.89178468 8.44458008-29.89178468 4.57739258 0 8.44470215 13.68865967 8.44470215 29.89178467s-3.86730957 29.89178467-8.44470215 29.89178467c-4.5772705 0-8.44458008-13.68865967-8.44458008-29.89178467z"/>
      <ellipse cx="224.763" cy="248.889" fill="rgb(207,204,224)" rx="3.589" ry="7.059"/>
      <path fill="rgb(63,61,86)" fill-rule="evenodd" d="M216.95148789 153.11804072l57.84573585-.2109494v22.77114347l-57.84573585 2.33183462v-24.89202869z"/>
      <path fill="rgb(63,61,86)" fill-rule="evenodd" d="M167.54954054 230.34872396l-.84277437-.04598697 2.55534594-46.3860845h52.3339239v.84379758h-51.53463939l-2.51185608 45.5882739z"/>
      <path fill="rgb(63,61,86)" fill-rule="evenodd" d="M167.46298305 305.4146445l-29.5562154-5.0627855.17522614-.82565593 29.5562154 5.0627855-.17522614.82565593z"/>
      <rect width=".845" height="35.983" x="190.984" y="299.034" fill="rgb(63,61,86)" rx="0" ry="0" transform="rotate(-85.29218 191.40675179 317.02570307)"/>
      <path fill="rgb(63,61,86)" fill-rule="evenodd" d="M256.74693476 230.39314147s-.4750106 1.52518944-.8951311 3.11361308l-.88246414.09703672-27.46194642 3.05032826-62.91251563-6.32848187 65.44590552-3.37519033 25.87857774 3.33721944.82757403.1054747z"/>
      <path fill="rgb(47,46,65)" fill-rule="evenodd" d="M242.36096204 79.41625398s-9.1448155-3.26343356-15.02362696 9.79029646S212.3137039 116.619378 212.3137039 116.619378l5.22561066 1.30535486s1.30638472-9.1376106 4.57240986-10.44298233l-1.30640583 11.74835406s39.19208207 13.7064159 56.82851647-1.30535486l-.65319236-4.5688053s2.61280744.65267744 2.61280744 4.5688053l1.95960242-1.9580576s-1.95960242-3.91611943-7.8384181-9.1376106c-3.85859348-3.42715981-5.18458242-9.94728921-5.64024215-14.0237808-.34137112-3.40391977-1.70433602-6.62528226-3.91013951-9.24160021-3.90678278-4.52415153-11.02546481-9.33267972-21.80329076-4.14744654z"/>
      <path fill="rgb(255,185,185)" fill-rule="evenodd" d="M191.8288188 91.73189738L188.02873396 52.073411s-7.60016967-21.51683835 3.80008484-19.82924319c11.40025451 1.68759517 4.64454813 18.14164803 4.64454813 18.14164803l6.33347473 41.34608154H191.8288188z"/>
      <path fill="rgb(255,185,185)" fill-rule="evenodd" d="M162.2724894 271.88255047l-4.22231649 14.3445589 8.02240133 6.75038066 5.91124308-18.14164802-9.71132792-2.95329154z"/>
      <path fill="rgb(255,185,185)" fill-rule="evenodd" d="M194.78444034 282.43015104l-4.22231649 15.18835649 14.7781077 9.2817734s.42223165-17.29785044 2.5333899-20.67304077l-13.08918111-3.79708912z"/>
      <path fill="rgb(47,46,65)" fill-rule="evenodd" d="M212.94040123 201.42558311l-2.11115825 4.21898792s-24.06720396-10.96936858-30.4006787 4.2189879c-6.33347472 15.1883565-20.26711912 63.2848187-20.26711912 63.2848187l12.2447178 5.0627855 22.37827738-51.04975375 51.09002947-1.26569637 2.11115825-28.26721902-35.04522683 3.79708912z"/>
      <path fill="rgb(47,46,65)" fill-rule="evenodd" d="M230.67413047 208.59786257s-34.62299519-7.17227946-37.15638508 10.12557099c-2.53338989 17.29785044 1.26669495 50.20595616 1.6889266 51.04975374.42223165.84379758-1.6889266 16.45405286-1.6889266 16.45405286l15.20033935 2.10949396s9.71132792-45.98696825 5.48901143-57.8001344l28.56809623-1.76570552c9.86149038-.60950874 17.91774624-8.39346128 18.48484134-18.24973427.21708196-3.77287213-.72809625-7.19703226-3.98530942-9.09557682-10.13355956-5.90658307-28.7117521-5.90658307-28.7117521-5.90658307l2.11115825 13.07886253z"/>
      <path fill="rgb(47,46,65)" fill-rule="evenodd" d="M163.53929835 285.80534137s-2.95562154-6.32848187-7.17793803-3.37519033c-4.22231648 2.95329154-13.9336444 9.2817734-13.9336444 9.2817734s-15.02257982 5.28574636-1.6889266 8.85987462c11.860221 3.17916772 14.7781077 2.53139275 14.7781077 2.53139275s9.71132792 1.68759517 10.97802287.84379758c1.26669494-.84379758 2.11115824-14.3445589 2.11115824-14.3445589s-5.91124308-1.26569637-5.06677978-3.79708912z"/>
      <path fill="rgb(47,46,65)" fill-rule="evenodd" d="M196.47336693 298.8842039s-4.22231648-5.90658308-7.17793802-3.37519033c-2.95562154 2.53139275-13.51141276 9.7036722-13.51141276 9.7036722s-17.73372923 5.0627855-2.11115824 9.7036722c15.622571 4.6408867 32.93406859 3.79708912 33.35630024 2.10949395.42223165-1.68759516-.8444633-13.9226601-.8444633-13.9226601s-8.86686462-.4218988-9.71132792-4.21898792z"/>
      <ellipse cx="247.141" cy="106.076" fill="rgb(255,185,185)" rx="15.2" ry="15.188"/>
      <path fill="rgb(255,185,185)" fill-rule="evenodd" d="M236.1631419 112.82683695s-.8444633 17.29785044-5.06677979 18.56354681c-4.22231648 1.26569638-16.04480264 15.18835649-10.55579121 19.4073444 5.48901143 4.21898791 37.15638507 1.26569637 37.15638507 1.26569637l-2.95562154-21.93873714s-6.75570637-4.6408867-1.26669494-12.65696374l-17.3114976-4.6408867z"/>
      <path fill="rgb(207,204,224)" fill-rule="evenodd" d="M235.74091025 141.51595475l-2.95562154-13.92266011-9.71132792-3.79708912-8.02240132 18.56354681s-9.07798044 60.12057776-6.54459055 60.96437534c1.42151185.50131461 2.9283021.71640067 4.4334323.6328482 1.50513022-.08355249 13.51141276-4.21898792 17.73372925-2.10949396 4.22231648 2.10949395 26.1783622 3.79708912 26.1783622 3.79708912s15.20033935-8.01607704 14.35587606-15.18835649c-.8444633-7.17227945 0-47.25266462 0-47.25266462l-1.90004242-17.93069863-16.65993505 2.60409435-16.90748101 13.63900911z"/>
      <path fill="rgb(207,204,224)" fill-rule="evenodd" d="M223.49607844 125.90556869l-.42223165-2.53139275-11.82248616-14.3445589-6.75570638-24.0482311-16.46703429 6.32848186 11.82248616 29.1110166 16.88926594 21.51683835 6.75570638-16.03215406z"/>
      <path fill="rgb(47,46,65)" fill-rule="evenodd" d="M227.17191317 107.8928909s5.22561066-7.17954877 9.79802052-8.4849205c4.57240985-1.30537174 5.22561066-7.83223886 5.22561066-7.83223886s11.75762293 13.05373002 18.942836 13.70641589c7.18521308.65268587.65319237-15.6644735.65319237-15.6644735l-13.06402455-3.26343355-12.41082373 1.30535486-9.79802052 6.52686712.65320925 13.70642854z"/>
      <path fill="rgb(63,61,86)" fill-rule="evenodd" d="M276.06434091 205.4478354l-.40872023-17.312195H236.3631657l-1.25571693 46.4206802-.8444633-.02320443 1.2780952-47.24127335h40.93113602l.0135114.40755423.42223166 17.71974923-.84361884.02868912z"/>
      <path fill="rgb(63,61,86)" fill-rule="evenodd" d="M275.21945538 181.80715853h-.8444633V149.6032019l13.62963762 3.95361358-.23602749.81046757-12.54914683-3.64056467v31.08044016z"/>
      <path fill="rgb(63,61,86)" fill-rule="evenodd" d="M255.9194336 230.28771973c4.77539062-15.39086914 13.4354248-25.69787598 23.31140136-25.69787598 15.01879883 0 27.23388672 23.84570313 27.23388672 53.15924072 0 29.3135376-12.2150879 53.15924073-27.23388672 53.15924073-15.01879883 0-27.23400879-23.84570313-27.23400879-53.15924073-.03735351-8.14178467.96154785-16.25524902 2.97253418-24.14526367.29553223-1.12646484.61230469-2.23608398.95007324-3.31610107zm-3.078125 27.4613037c0 28.84521485 11.83935546 52.31549073 26.38952636 52.31549073 14.55004883 0 26.3894043-23.47027588 26.3894043-52.31549072 0-28.84521485-11.83935547-52.31542969-26.3894043-52.31542969-9.49597168 0-17.835083 9.99481201-22.48388672 24.9595337-.47705078 1.52514648-.8951416 3.11358642-.8951416 3.11358642-2.03796387 7.91870117-3.04968262 16.06610107-3.01049805 24.24230957z"/>
      <path fill="rgb(63,61,86)" fill-rule="evenodd" d="M276.48620605 257.74908447c0 17.23480225 4.08007813 30.73553467 9.2890625 30.73553467 5.20910645 0 9.28918457-13.50073242 9.28918457-30.73553467 0-17.23486328-4.08007812-30.7355957-9.28918457-30.7355957-5.20898437 0-9.2890625 13.50073242-9.2890625 30.7355957zm.84448243 0c0-16.203125 3.86730957-29.89178467 8.44458007-29.89178467 4.57739258 0 8.44470215 13.68865967 8.44470215 29.89178467s-3.86730957 29.89178467-8.44470215 29.89178467c-4.5772705 0-8.44458007-13.68865967-8.44458007-29.89178467z"/>
      <ellipse cx="286.831" cy="257.749" fill="rgb(207,204,224)" rx="3.589" ry="7.059"/>
      <path fill="rgb(63,61,86)" fill-rule="evenodd" d="M281.13069846 148.89905281l8.86686462 3.37519033-1.6889266 4.6408867-7.17793802-2.95329153v-5.0627855z"/>
      <path fill="rgb(63,61,86)" fill-rule="evenodd" d="M246.08547163 185.18234886v6.75038066h25.15698386v-6.30190224l-25.15698386-.44847842z"/>
      <path fill="rgb(63,61,86)" fill-rule="evenodd" d="M181.4840294 181.80715853v6.75038066h25.15698386v-6.30190224l-25.15698385-.44847842z"/>
      <path fill="rgb(63,61,86)" fill-rule="evenodd" d="M227.5073931 165.42811084h-.20523836v-5.6180043c.00000672-.8623731-.34283696-1.68942757-.95310792-2.29921744-.61027096-.60978986-1.43797793-.95236326-2.3010314-.95235655h-11.91188104c-.86305346-.00000671-1.69076044.34256669-2.3010314.95235655-.61027095.60978987-.95311463 1.43684434-.95310791 2.29921743v30.82082896c-.00000672.8623731.34283696 1.68942756.95310792 2.29921743.61027095.60978986 1.43797793.95236327 2.3010314.95235655h11.9118937c.86305347.00000672 1.69076044-.34256669 2.3010314-.95235655.61027096-.60978987.95311464-1.43684434.95310792-2.29921743v-21.20383165h.20523836l-.00001267-3.998993z"/>
      <ellipse cx="218.195" cy="166.133" fill="rgb(208,205,225)" rx="1.993" ry="1.992"/>
      <path fill="rgb(255,185,185)" fill-rule="evenodd" d="M268.70813669 185.58909305l-39.86422842-.74921631s-22.25991317 5.0914746-19.28223003-6.0331021c2.97768314-11.1245767 18.56710473-2.54225663 18.56710473-2.54225663l41.83097921-1.5732606-1.2516255 10.89783564z"/>
      <path fill="rgb(207,204,224)" fill-rule="evenodd" d="M264.66377817 128.22614283l3.80008484-2.95329154s6.33347473-3.37519033 7.60016967 8.43797582c1.26669495 11.81316616 10.55579122 51.04975375 1.26669495 51.47165254-9.28909627.4218988-32.93406859.84379758-32.93406859.84379758l2.5333899-13.07886253 19.42265583-1.26569637-1.6889266-43.4555755z"/>
      <g opacity=".15">
        <path fill="rgb(0,0,0)" fill-rule="evenodd" d="M265.93035912 146.36766006l-1.26669495 24.0482311-18.57819254 3.79708913 16.88926595-6.75038066 2.95562154-21.09493957z"/>
      </g>
    </g>
  </g>
</svg>
